<svg xmlns="http://www.w3.org/2000/svg" viewBox="0 0 1600 520" role="img" aria-labelledby="title desc">
  <title id="title">彰榖米品牌稻田主視覺</title>
  <desc id="desc">金色稻田、遠山、陽光與彰榖米品牌文字的橫幅視覺。</desc>
  <defs>
    <linearGradient id="sky" x1="0" y1="0" x2="0" y2="1">
      <stop offset="0" stop-color="#cfe7f0"/>
      <stop offset="0.54" stop-color="#f6eed7"/>
      <stop offset="1" stop-color="#f4d16c"/>
    </linearGradient>
    <linearGradient id="field" x1="0" y1="0" x2="0" y2="1">
      <stop offset="0" stop-color="#e6c64e"/>
      <stop offset="0.48" stop-color="#c8a836"/>
      <stop offset="1" stop-color="#486b29"/>
    </linearGradient>
    <linearGradient id="overlay" x1="0" y1="0" x2="1" y2="1">
      <stop offset="0" stop-color="#12381b" stop-opacity="0.15"/>
      <stop offset="0.55" stop-color="#12381b" stop-opacity="0.02"/>
      <stop offset="1" stop-color="#d9b33b" stop-opacity="0.32"/>
    </linearGradient>
    <filter id="softShadow" x="-20%" y="-20%" width="140%" height="140%">
      <feDropShadow dx="0" dy="18" stdDeviation="18" flood-color="#12381b" flood-opacity="0.18"/>
    </filter>
    <symbol id="rice" viewBox="0 0 80 160">
      <path d="M42 150 C38 112 40 72 55 18" fill="none" stroke="#29491f" stroke-width="4" stroke-linecap="round"/>
      <g fill="#e3c74e" stroke="#77641b" stroke-width="1.5">
        <ellipse cx="49" cy="30" rx="6" ry="13" transform="rotate(20 49 30)"/>
        <ellipse cx="43" cy="45" rx="6" ry="13" transform="rotate(-28 43 45)"/>
        <ellipse cx="51" cy="60" rx="6" ry="13" transform="rotate(25 51 60)"/>
        <ellipse cx="39" cy="77" rx="6" ry="13" transform="rotate(-24 39 77)"/>
        <ellipse cx="49" cy="94" rx="6" ry="13" transform="rotate(26 49 94)"/>
        <ellipse cx="36" cy="111" rx="6" ry="13" transform="rotate(-20 36 111)"/>
      </g>
      <path d="M40 132 C22 112 10 89 8 60" fill="none" stroke="#658234" stroke-width="3" stroke-linecap="round" opacity="0.85"/>
      <path d="M43 118 C60 96 70 73 72 45" fill="none" stroke="#658234" stroke-width="3" stroke-linecap="round" opacity="0.85"/>
    </symbol>
  </defs>
  <rect width="1600" height="520" fill="url(#sky)"/>
  <circle cx="1415" cy="95" r="86" fill="#fff3b8" opacity="0.9"/>
  <circle cx="1415" cy="95" r="140" fill="#fff3b8" opacity="0.18"/>
  <path d="M0 205 C160 145 270 180 420 135 C610 76 730 168 890 128 C1080 80 1220 128 1600 78 L1600 300 L0 300 Z" fill="#41644a" opacity="0.78"/>
  <path d="M0 240 C210 188 310 230 505 172 C710 110 845 220 1030 165 C1250 100 1390 172 1600 132 L1600 315 L0 315 Z" fill="#263f2d" opacity="0.64"/>
  <path d="M0 265 C220 230 360 255 560 220 C780 182 930 240 1160 202 C1350 172 1480 205 1600 190 L1600 320 L0 320 Z" fill="#6f8a40" opacity="0.52"/>
  <rect y="255" width="1600" height="265" fill="url(#field)"/>
  <g opacity="0.55">
    <path d="M0 320 C200 300 330 346 520 318 C720 288 840 350 1030 315 C1230 282 1430 330 1600 294" fill="none" stroke="#f5dc75" stroke-width="8"/>
    <path d="M0 370 C210 330 420 390 650 352 C870 318 1030 386 1260 348 C1420 325 1510 348 1600 332" fill="none" stroke="#806d25" stroke-width="5" opacity="0.35"/>
  </g>
  <g opacity="0.55" stroke="#1f4722" stroke-width="2">
    <path d="M95 520 L180 280"/><path d="M180 520 L250 270"/><path d="M270 520 L330 268"/><path d="M430 520 L505 265"/><path d="M610 520 L680 270"/><path d="M820 520 L875 258"/><path d="M1030 520 L1088 270"/><path d="M1240 520 L1305 262"/><path d="M1450 520 L1505 270"/>
  </g>
  <g transform="translate(80 335) scale(1.05)"><use href="#rice"/></g>
  <g transform="translate(255 312) scale(1.22)"><use href="#rice"/></g>
  <g transform="translate(505 326) scale(0.95)"><use href="#rice"/></g>
  <g transform="translate(740 305) scale(1.16)"><use href="#rice"/></g>
  <g transform="translate(1035 330) scale(1.02)"><use href="#rice"/></g>
  <g transform="translate(1310 300) scale(1.25)"><use href="#rice"/></g>
  <rect width="1600" height="520" fill="url(#overlay)"/>
  <rect x="70" y="64" width="580" height="176" rx="28" fill="#12381b" opacity="0.76" filter="url(#softShadow)"/>
  <text x="108" y="126" font-family="Noto Serif TC, Songti TC, serif" font-size="46" font-weight="700" fill="#f8f3e7" letter-spacing="6">彰榖米品牌</text>
  <text x="112" y="168" font-family="Noto Sans TC, Arial, sans-serif" font-size="22" fill="#f4d983" letter-spacing="4">CHANG GU MI BRAND</text>
  <text x="112" y="207" font-family="Noto Sans TC, Arial, sans-serif" font-size="22" fill="#ffffff" opacity="0.9">從土地到餐桌，讓彰化好米被更多人看見</text>
</svg>
