<svg xmlns="http://www.w3.org/2000/svg" viewBox="0 0 100 170" opacity="0.4">
  <path d="M42 150 C38 112 40 72 55 18" fill="none" stroke="#c6a437" stroke-width="3" stroke-linecap="round"/>
  <g fill="#e0c783" stroke="#c6a437" stroke-width="1">
    <ellipse cx="49" cy="30" rx="5" ry="11" transform="rotate(20 49 30)"/>
    <ellipse cx="43" cy="45" rx="5" ry="11" transform="rotate(-28 43 45)"/>
    <ellipse cx="51" cy="60" rx="5" ry="11" transform="rotate(25 51 60)"/>
    <ellipse cx="39" cy="77" rx="5" ry="11" transform="rotate(-24 39 77)"/>
    <ellipse cx="49" cy="94" rx="5" ry="11" transform="rotate(26 49 94)"/>
    <ellipse cx="36" cy="111" rx="5" ry="11" transform="rotate(-20 36 111)"/>
  </g>
  <path d="M40 132 C22 112 10 89 8 60" fill="none" stroke="#d6b95a" stroke-width="2" stroke-linecap="round" opacity="0.85"/>
  <path d="M43 118 C60 96 70 73 72 45" fill="none" stroke="#d6b95a" stroke-width="2" stroke-linecap="round" opacity="0.85"/>
</svg>
